<svg xmlns="http://www.w3.org/2000/svg" style="color:#1d1b18;font-family:&quot;iA Writer Quattro&quot;,ui-sans-serif,system-ui,sans-serif" viewBox="0 0 560 300"><text x="40" y="38" fill="currentColor" font-family="monospace" font-size="17">4QFJ16</text><text x="40" y="54" fill="currentColor" fill-opacity=".6" font-size="14">квадрат 100 км</text><path stroke="currentColor" stroke-opacity=".2" d="M58 66v180M76 66v180M94 66v180m18-180v180m18-180v180m18-180v180m18-180v180m18-180v180m18-180v180M40 84h180M40 102h180M40 120h180M40 138h180M40 156h180M40 174h180M40 192h180M40 210h180M40 228h180"/><path fill="#d97757" fill-opacity=".3" stroke="#d97757" d="M58 120h18v18H58z"/><path fill="none" stroke="currentColor" d="M40 66h180v180H40z"/><text x="130" y="264" fill="currentColor" fill-opacity=".6" font-size="14" text-anchor="middle">easting →</text><text x="30" y="156" fill="currentColor" fill-opacity=".6" font-size="14" text-anchor="middle" transform="rotate(-90 30 156)">northing ↑</text><path stroke="#d97757" stroke-dasharray="4 3" stroke-opacity=".5" d="m76 120 264-54M76 138l264 108"/><text x="340" y="38" fill="currentColor" font-family="monospace" font-size="17">4QFJ1267</text><text x="340" y="54" fill="currentColor" fill-opacity=".6" font-size="14">той самий, збільшений</text><path stroke="currentColor" stroke-opacity=".2" d="M358 66v180m18-180v180m18-180v180m18-180v180m18-180v180m18-180v180m18-180v180m18-180v180m18-180v180M340 84h180m-180 18h180m-180 18h180m-180 18h180m-180 18h180m-180 18h180m-180 18h180m-180 18h180m-180 18h180"/><path fill="#d97757" fill-opacity=".3" stroke="#d97757" d="M376 102h18v18h-18z"/><path fill="none" stroke="currentColor" d="M340 66h180v180H340z"/><text x="430" y="264" fill="currentColor" fill-opacity=".6" font-size="14" text-anchor="middle">квадрат 1 км</text></svg>