<svg xmlns="http://www.w3.org/2000/svg" style="color:#1d1b18;font-family:&quot;iA Writer Quattro&quot;,ui-sans-serif,system-ui,sans-serif" viewBox="0 0 560 200"><path fill="none" stroke="currentColor" stroke-opacity=".6" d="M40 52h120v52H40z"/><text x="100" y="72" fill="currentColor" font-size="15" text-anchor="middle">УСК-2000 · 4</text><text x="100" y="92" fill="currentColor" fill-opacity=".6" font-size="15" text-anchor="middle">UTM · 34</text><path stroke="currentColor" stroke-dasharray="3 3" stroke-opacity=".5" d="M100 104v14"/><text x="100" y="132" fill="currentColor" fill-opacity=".6" font-size="14" text-anchor="middle">21°E</text><path fill="none" stroke="currentColor" stroke-opacity=".6" d="M160 52h120v52H160z"/><text x="220" y="72" fill="currentColor" font-size="15" text-anchor="middle">УСК-2000 · 5</text><text x="220" y="92" fill="currentColor" fill-opacity=".6" font-size="15" text-anchor="middle">UTM · 35</text><path stroke="currentColor" stroke-dasharray="3 3" stroke-opacity=".5" d="M220 104v14"/><text x="220" y="132" fill="currentColor" fill-opacity=".6" font-size="14" text-anchor="middle">27°E</text><path fill="#d97757" fill-opacity=".14" stroke="currentColor" stroke-opacity=".6" d="M280 52h120v52H280z"/><text x="340" y="72" fill="currentColor" font-size="15" text-anchor="middle">УСК-2000 · 6</text><text x="340" y="92" fill="currentColor" fill-opacity=".6" font-size="15" text-anchor="middle">UTM · 36</text><path stroke="currentColor" stroke-dasharray="3 3" stroke-opacity=".5" d="M340 104v14"/><text x="340" y="132" fill="currentColor" fill-opacity=".6" font-size="14" text-anchor="middle">33°E</text><path fill="none" stroke="currentColor" stroke-opacity=".6" d="M400 52h120v52H400z"/><text x="460" y="72" fill="currentColor" font-size="15" text-anchor="middle">УСК-2000 · 7</text><text x="460" y="92" fill="currentColor" fill-opacity=".6" font-size="15" text-anchor="middle">UTM · 37</text><path stroke="currentColor" stroke-dasharray="3 3" stroke-opacity=".5" d="M460 104v14"/><text x="460" y="132" fill="currentColor" fill-opacity=".6" font-size="14" text-anchor="middle">39°E</text><text x="40" y="40" fill="currentColor" fill-opacity=".6" font-size="14">18°E</text><text x="520" y="40" fill="currentColor" fill-opacity=".6" font-size="14" text-anchor="end">42°E</text><circle cx="290" cy="52" r="4" fill="#d97757"/><text x="290" y="40" fill="#d97757" font-size="14" text-anchor="middle">Київ 30.52°E</text><path stroke="currentColor" stroke-opacity=".6" d="M123 158h361m-361-6v12m361-12v12"/><text x="303" y="180" fill="currentColor" fill-opacity=".6" font-size="14" text-anchor="middle">Україна, 22.15°–40.18°E</text></svg>